<?xml version="1.0" encoding="windows-1252"?>
<!-- Generator: Adobe Illustrator 16.0.0, SVG Export Plug-In . SVG Version: 6.00 Build 0)  -->
<!DOCTYPE svg PUBLIC "-//W3C//DTD SVG 1.1//EN" "http://www.w3.org/Graphics/SVG/1.1/DTD/svg11.dtd">
<svg version="1.1" id="Capa_1" xmlns="http://www.w3.org/2000/svg" xmlns:xlink="http://www.w3.org/1999/xlink" x="0px" y="0px" width="464.24px" height="464.24px" viewBox="0 0 464.24 464.24" style="enable-background:new 0 0 464.24 464.24;" xml:space="preserve">
<g>
	<g>
		<path d="M109.969,464.24h244.303c60.635,0,109.969-49.333,109.969-109.969V109.969C464.24,49.333,414.906,0,354.271,0H109.969    C49.333,0,0,49.333,0,109.969v244.303C0,414.907,49.323,464.24,109.969,464.24z M340.998,340.999V232.12h94.545v108.879H340.998    L340.998,340.999z M340.998,232.12H232.12V123.232h108.888V232.12H340.998z M232.12,123.232H123.232V28.688H232.12V123.232z     M123.232,123.232V232.11H28.688V123.232H123.232z M123.232,232.12H232.12v108.879H123.232V232.12z M232.12,341.009h108.888    v94.544H232.12V341.009z M435.553,109.969v13.263h-94.545V28.688h13.264C399.09,28.688,435.553,65.149,435.553,109.969z     M28.688,341.009h94.544v94.544h-13.263c-44.819,0-81.281-36.462-81.281-81.281V341.009L28.688,341.009z"/>
	</g>
</g>
<g>
</g>
<g>
</g>
<g>
</g>
<g>
</g>
<g>
</g>
<g>
</g>
<g>
</g>
<g>
</g>
<g>
</g>
<g>
</g>
<g>
</g>
<g>
</g>
<g>
</g>
<g>
</g>
<g>
</g>
</svg>